<?xml version="1.0" encoding="UTF-8"?>
<svg width="562px" height="555px" viewBox="0 0 562 555" version="1.1" xmlns="http://www.w3.org/2000/svg" xmlns:xlink="http://www.w3.org/1999/xlink">
    <!-- Generator: Sketch Internal 55 (78105) - https://sketchapp.com -->
    <title>Fill 1</title>
    <desc>Created with Sketch Internal.</desc>
    <g id="Icon" stroke="none" stroke-width="1" fill="none" fill-rule="evenodd">
        <g id="AppIcon" transform="translate(-231.000000, -235.000000)" fill="#FFBF00">
            <path d="M771.564404,587.673338 C797.380172,556.140523 833.315261,334.720949 653.639816,260.042505 C473.964372,185.249083 387.720158,297.439216 389.18631,343.344326 C328.757864,364.902768 315.84998,432.510043 315.84998,432.510043 C315.84998,432.510043 228.139615,475.626928 231.071919,527.395934 C233.88923,579.049961 297.106238,581.953165 297.106238,581.953165 L316.30995,608.340698 L320.133443,581.953165 C320.133443,581.953165 414.685849,538.376367 418.940563,576.462948 C423.31027,614.520785 335.944882,628.001997 335.944882,628.001997 L318.207322,615.066932 L323.726952,639.097409 C323.726952,639.097409 304.408248,645.162517 313.032669,663.932734 C330.224016,692.677324 387.720158,653.814639 387.720158,653.814639 C387.720158,653.814639 343.246892,821.798021 471.060816,784.631266 C392.003621,744.331352 463.873799,682.559229 463.873799,682.559229 C463.873799,682.559229 479.685238,843.471442 636.362225,745.768581 C512.716771,758.703647 541.119866,696.47161 554.487719,682.559229 C567.855572,668.646847 636.362225,597.33152 636.362225,597.33152 C636.362225,597.33152 672.297314,650.911435 584.586949,716.592823 C699.579234,747.234555 705.415092,537.370306 705.415092,537.370306 C705.415092,537.370306 732.697012,637.97637 660.826834,705.583645 C824.662091,669.652908 742.70134,464.157836 742.70134,464.157836 C742.70134,464.157836 772.915563,474.160954 771.564404,587.673338 Z M338.762193,426.78987 C335.944882,416.326839 343.936846,408.019653 352.130046,406.582423 C360.438239,405.231427 390.537469,414.084761 399.190639,418.683895 C407.930052,423.398008 341.464512,437.109177 338.762193,426.78987 Z" id="Fill-1"></path>
        </g>
    </g>
</svg>